<svg width="334" height="92" viewBox="0 0 334 92" fill="none" xmlns="http://www.w3.org/2000/svg">
<path d="M100.241 63.9091C100.241 65.0194 100.031 65.964 99.6101 66.7429C99.1925 67.5218 98.6224 68.1167 97.8999 68.5277C97.1806 68.9354 96.3719 69.1392 95.4737 69.1392C94.5689 69.1392 93.7569 68.9337 93.0376 68.5227C92.3184 68.1117 91.75 67.5168 91.3324 66.7379C90.9148 65.959 90.706 65.0161 90.706 63.9091C90.706 62.7988 90.9148 61.8542 91.3324 61.0753C91.75 60.2964 92.3184 59.7031 93.0376 59.2955C93.7569 58.8845 94.5689 58.679 95.4737 58.679C96.3719 58.679 97.1806 58.8845 97.8999 59.2955C98.6224 59.7031 99.1925 60.2964 99.6101 61.0753C100.031 61.8542 100.241 62.7988 100.241 63.9091ZM98.0589 63.9091C98.0589 63.1899 97.9512 62.5833 97.7358 62.0895C97.5237 61.5956 97.2237 61.2211 96.8359 60.9659C96.4482 60.7107 95.9941 60.5831 95.4737 60.5831C94.9534 60.5831 94.4993 60.7107 94.1115 60.9659C93.7237 61.2211 93.4221 61.5956 93.2067 62.0895C92.9946 62.5833 92.8885 63.1899 92.8885 63.9091C92.8885 64.6283 92.9946 65.2348 93.2067 65.7287C93.4221 66.2225 93.7237 66.5971 94.1115 66.8523C94.4993 67.1075 94.9534 67.2351 95.4737 67.2351C95.9941 67.2351 96.4482 67.1075 96.8359 66.8523C97.2237 66.5971 97.5237 66.2225 97.7358 65.7287C97.9512 65.2348 98.0589 64.6283 98.0589 63.9091ZM105.594 64.5852V69H103.476V61.3636H105.495V62.7109H105.584C105.753 62.2668 106.037 61.9155 106.434 61.657C106.832 61.3951 107.314 61.2642 107.881 61.2642C108.411 61.2642 108.874 61.3802 109.268 61.6122C109.663 61.8442 109.969 62.1757 110.188 62.6065C110.407 63.0341 110.516 63.5445 110.516 64.1378V69H108.398V64.5156C108.402 64.0483 108.282 63.6837 108.04 63.4219C107.798 63.1567 107.465 63.0241 107.041 63.0241C106.756 63.0241 106.504 63.0855 106.285 63.2081C106.07 63.3307 105.901 63.5097 105.778 63.745C105.659 63.977 105.598 64.2571 105.594 64.5852ZM117.345 69.1491C116.56 69.1491 115.884 68.9901 115.317 68.6719C114.754 68.3504 114.319 67.8963 114.014 67.3097C113.71 66.7197 113.557 66.022 113.557 65.2166C113.557 64.4311 113.71 63.7417 114.014 63.1484C114.319 62.5552 114.749 62.0928 115.302 61.7614C115.859 61.4299 116.512 61.2642 117.261 61.2642C117.765 61.2642 118.234 61.3454 118.668 61.5078C119.105 61.6669 119.487 61.9072 119.811 62.2287C120.139 62.5502 120.395 62.9545 120.577 63.4418C120.759 63.9257 120.85 64.4924 120.85 65.142V65.7237H114.402V64.4112H118.857C118.857 64.1063 118.791 63.8362 118.658 63.6009C118.525 63.3655 118.341 63.1816 118.106 63.049C117.874 62.9131 117.604 62.8452 117.296 62.8452C116.974 62.8452 116.689 62.9197 116.441 63.0689C116.195 63.2147 116.003 63.4119 115.864 63.6605C115.725 63.9058 115.653 64.1792 115.65 64.4808V65.7287C115.65 66.1065 115.72 66.433 115.859 66.7081C116.001 66.9832 116.202 67.1953 116.46 67.3445C116.719 67.4936 117.026 67.5682 117.38 67.5682C117.616 67.5682 117.831 67.535 118.027 67.4688C118.222 67.4025 118.389 67.303 118.529 67.1705C118.668 67.0379 118.774 66.8755 118.847 66.6832L120.806 66.8125C120.706 67.2831 120.502 67.6941 120.194 68.0455C119.889 68.3935 119.495 68.6652 119.011 68.8608C118.53 69.053 117.975 69.1491 117.345 69.1491ZM134.396 61.7464C134.356 61.3454 134.185 61.0339 133.884 60.8118C133.582 60.5897 133.173 60.4787 132.656 60.4787C132.305 60.4787 132.008 60.5284 131.766 60.6278C131.524 60.724 131.338 60.8582 131.209 61.0305C131.083 61.2029 131.02 61.3984 131.02 61.6172C131.014 61.7995 131.052 61.9586 131.135 62.0945C131.221 62.2304 131.338 62.348 131.488 62.4474C131.637 62.5436 131.809 62.6281 132.005 62.701C132.2 62.7706 132.409 62.8303 132.631 62.88L133.546 63.0987C133.99 63.1982 134.398 63.3307 134.769 63.4964C135.14 63.6622 135.462 63.866 135.733 64.108C136.005 64.3499 136.216 64.6349 136.365 64.9631C136.517 65.2912 136.595 65.6674 136.598 66.0916C136.595 66.7147 136.436 67.255 136.121 67.7124C135.81 68.1664 135.359 68.5194 134.769 68.7713C134.182 69.0199 133.475 69.1442 132.646 69.1442C131.824 69.1442 131.108 69.0182 130.498 68.7663C129.892 68.5144 129.418 68.1416 129.076 67.6477C128.738 67.1506 128.561 66.5357 128.544 65.8033H130.627C130.651 66.1446 130.748 66.4297 130.921 66.6584C131.096 66.8838 131.33 67.0545 131.622 67.1705C131.917 67.2831 132.25 67.3395 132.621 67.3395C132.986 67.3395 133.302 67.2865 133.571 67.1804C133.842 67.0743 134.053 66.9268 134.202 66.7379C134.351 66.549 134.426 66.3319 134.426 66.0866C134.426 65.858 134.358 65.6657 134.222 65.5099C134.089 65.3542 133.894 65.2216 133.635 65.1122C133.38 65.0028 133.067 64.9034 132.696 64.8139L131.587 64.5355C130.729 64.3267 130.051 64.0002 129.554 63.5561C129.056 63.112 128.81 62.5137 128.813 61.7614C128.81 61.1449 128.974 60.6063 129.305 60.1456C129.64 59.6849 130.099 59.3253 130.682 59.0668C131.266 58.8082 131.928 58.679 132.671 58.679C133.427 58.679 134.086 58.8082 134.65 59.0668C135.216 59.3253 135.657 59.6849 135.972 60.1456C136.287 60.6063 136.449 61.1399 136.459 61.7464H134.396ZM143.748 61.3636V62.9545H139.15V61.3636H143.748ZM140.194 59.5341H142.312V66.6534C142.312 66.849 142.341 67.0014 142.401 67.1108C142.461 67.2169 142.544 67.2914 142.65 67.3345C142.759 67.3776 142.885 67.3991 143.027 67.3991C143.127 67.3991 143.226 67.3909 143.326 67.3743C143.425 67.3544 143.501 67.3395 143.554 67.3295L143.888 68.9055C143.782 68.9387 143.632 68.9768 143.44 69.0199C143.248 69.0663 143.014 69.0945 142.739 69.1044C142.229 69.1243 141.781 69.0563 141.397 68.9006C141.016 68.7448 140.719 68.5028 140.507 68.1747C140.295 67.8466 140.19 67.4323 140.194 66.9318V59.5341ZM150.176 69.1491C149.404 69.1491 148.736 68.9851 148.173 68.657C147.613 68.3255 147.18 67.8648 146.875 67.2749C146.57 66.6816 146.418 65.9938 146.418 65.2116C146.418 64.4228 146.57 63.7334 146.875 63.1435C147.18 62.5502 147.613 62.0895 148.173 61.7614C148.736 61.4299 149.404 61.2642 150.176 61.2642C150.948 61.2642 151.615 61.4299 152.175 61.7614C152.738 62.0895 153.172 62.5502 153.477 63.1435C153.782 63.7334 153.935 64.4228 153.935 65.2116C153.935 65.9938 153.782 66.6816 153.477 67.2749C153.172 67.8648 152.738 68.3255 152.175 68.657C151.615 68.9851 150.948 69.1491 150.176 69.1491ZM150.186 67.5085C150.538 67.5085 150.831 67.4091 151.066 67.2102C151.301 67.008 151.479 66.733 151.598 66.3849C151.721 66.0369 151.782 65.6409 151.782 65.1967C151.782 64.7526 151.721 64.3565 151.598 64.0085C151.479 63.6605 151.301 63.3854 151.066 63.1832C150.831 62.9811 150.538 62.88 150.186 62.88C149.832 62.88 149.533 62.9811 149.291 63.1832C149.053 63.3854 148.872 63.6605 148.749 64.0085C148.63 64.3565 148.57 64.7526 148.57 65.1967C148.57 65.6409 148.63 66.0369 148.749 66.3849C148.872 66.733 149.053 67.008 149.291 67.2102C149.533 67.4091 149.832 67.5085 150.186 67.5085ZM156.992 71.8636V61.3636H159.08V62.6463H159.174C159.267 62.4408 159.401 62.232 159.577 62.0199C159.756 61.8045 159.988 61.6255 160.273 61.483C160.561 61.3371 160.919 61.2642 161.347 61.2642C161.904 61.2642 162.418 61.41 162.888 61.7017C163.359 61.9901 163.735 62.4259 164.017 63.0092C164.298 63.5893 164.439 64.3168 164.439 65.1918C164.439 66.0436 164.302 66.7628 164.027 67.3494C163.755 67.9328 163.384 68.3752 162.913 68.6768C162.446 68.9751 161.922 69.1243 161.342 69.1243C160.931 69.1243 160.581 69.0563 160.293 68.9205C160.008 68.7846 159.774 68.6139 159.592 68.4084C159.41 68.1996 159.271 67.9891 159.174 67.777H159.11V71.8636H156.992ZM159.065 65.1818C159.065 65.6359 159.128 66.032 159.254 66.37C159.38 66.7081 159.562 66.9716 159.801 67.1605C160.039 67.3461 160.329 67.4389 160.671 67.4389C161.016 67.4389 161.307 67.3445 161.546 67.1555C161.785 66.9633 161.965 66.6982 162.088 66.3601C162.214 66.0187 162.277 65.6259 162.277 65.1818C162.277 64.741 162.215 64.3532 162.093 64.0185C161.97 63.6837 161.789 63.4219 161.551 63.233C161.312 63.044 161.019 62.9496 160.671 62.9496C160.326 62.9496 160.035 63.0407 159.796 63.223C159.561 63.4053 159.38 63.6638 159.254 63.9986C159.128 64.3333 159.065 64.7277 159.065 65.1818ZM172.491 69V58.8182H179.233V60.593H174.644V63.0192H178.785V64.794H174.644V69H172.491ZM182.321 69V61.3636H184.439V69H182.321ZM183.385 60.3793C183.07 60.3793 182.8 60.2749 182.575 60.0661C182.352 59.8539 182.241 59.6004 182.241 59.3054C182.241 59.0137 182.352 58.7635 182.575 58.5547C182.8 58.3426 183.07 58.2365 183.385 58.2365C183.7 58.2365 183.968 58.3426 184.19 58.5547C184.416 58.7635 184.528 59.0137 184.528 59.3054C184.528 59.6004 184.416 59.8539 184.19 60.0661C183.968 60.2749 183.7 60.3793 183.385 60.3793ZM189.933 64.5852V69H187.815V61.3636H189.834V62.7109H189.923C190.092 62.2668 190.376 61.9155 190.773 61.657C191.171 61.3951 191.653 61.2642 192.22 61.2642C192.751 61.2642 193.213 61.3802 193.607 61.6122C194.002 61.8442 194.308 62.1757 194.527 62.6065C194.746 63.0341 194.855 63.5445 194.855 64.1378V69H192.737V64.5156C192.741 64.0483 192.621 63.6837 192.379 63.4219C192.137 63.1567 191.804 63.0241 191.38 63.0241C191.095 63.0241 190.843 63.0855 190.624 63.2081C190.409 63.3307 190.24 63.5097 190.117 63.745C189.998 63.977 189.937 64.2571 189.933 64.5852ZM200.382 69.1442C199.895 69.1442 199.461 69.0597 199.079 68.8906C198.698 68.7183 198.397 68.4647 198.175 68.13C197.956 67.7919 197.846 67.371 197.846 66.8672C197.846 66.4429 197.924 66.0866 198.08 65.7983C198.236 65.5099 198.448 65.2779 198.716 65.1023C198.985 64.9266 199.29 64.794 199.631 64.7045C199.976 64.6151 200.337 64.5521 200.715 64.5156C201.159 64.4692 201.517 64.4261 201.789 64.3864C202.061 64.3433 202.258 64.2803 202.381 64.1974C202.503 64.1146 202.564 63.992 202.564 63.8295V63.7997C202.564 63.4848 202.465 63.2412 202.266 63.0689C202.071 62.8965 201.792 62.8104 201.431 62.8104C201.05 62.8104 200.747 62.8949 200.521 63.0639C200.296 63.2296 200.147 63.4384 200.074 63.6903L198.115 63.5312C198.214 63.0672 198.41 62.6662 198.702 62.3281C198.993 61.9867 199.369 61.7249 199.83 61.5426C200.294 61.357 200.831 61.2642 201.441 61.2642C201.865 61.2642 202.271 61.3139 202.659 61.4134C203.05 61.5128 203.396 61.6669 203.698 61.8757C204.003 62.0845 204.243 62.353 204.419 62.6811C204.595 63.0059 204.682 63.3954 204.682 63.8494V69H202.674V67.9411H202.614C202.492 68.1797 202.327 68.3902 202.122 68.5724C201.917 68.7514 201.67 68.8923 201.381 68.995C201.093 69.0945 200.76 69.1442 200.382 69.1442ZM200.988 67.6825C201.3 67.6825 201.575 67.6212 201.814 67.4986C202.052 67.3726 202.24 67.2036 202.376 66.9915C202.511 66.7794 202.579 66.5391 202.579 66.2706V65.4602C202.513 65.5033 202.422 65.5431 202.306 65.5795C202.193 65.6127 202.066 65.6442 201.923 65.674C201.781 65.7005 201.638 65.7254 201.496 65.7486C201.353 65.7685 201.224 65.7867 201.108 65.8033C200.859 65.8397 200.642 65.8977 200.457 65.9773C200.271 66.0568 200.127 66.1645 200.024 66.3004C199.921 66.433 199.87 66.5987 199.87 66.7976C199.87 67.0859 199.974 67.3063 200.183 67.4588C200.395 67.608 200.664 67.6825 200.988 67.6825ZM210.123 64.5852V69H208.005V61.3636H210.024V62.7109H210.113C210.282 62.2668 210.566 61.9155 210.964 61.657C211.361 61.3951 211.844 61.2642 212.41 61.2642C212.941 61.2642 213.403 61.3802 213.797 61.6122C214.192 61.8442 214.498 62.1757 214.717 62.6065C214.936 63.0341 215.045 63.5445 215.045 64.1378V69H212.927V64.5156C212.931 64.0483 212.811 63.6837 212.569 63.4219C212.327 63.1567 211.994 63.0241 211.57 63.0241C211.285 63.0241 211.033 63.0855 210.814 63.2081C210.599 63.3307 210.43 63.5097 210.307 63.745C210.188 63.977 210.127 64.2571 210.123 64.5852ZM221.845 69.1491C221.063 69.1491 220.39 68.9834 219.826 68.652C219.266 68.3172 218.835 67.8532 218.534 67.2599C218.235 66.6667 218.086 65.9839 218.086 65.2116C218.086 64.4295 218.237 63.7434 218.539 63.1534C218.844 62.5601 219.276 62.0978 219.836 61.7663C220.396 61.4316 221.063 61.2642 221.835 61.2642C222.501 61.2642 223.084 61.3852 223.585 61.6271C224.085 61.8691 224.481 62.2088 224.773 62.6463C225.065 63.0838 225.225 63.5975 225.255 64.1875H223.257C223.2 63.8063 223.051 63.4998 222.809 63.2678C222.571 63.0324 222.257 62.9148 221.87 62.9148C221.541 62.9148 221.255 63.0043 221.01 63.1832C220.768 63.3589 220.579 63.6158 220.443 63.9538C220.307 64.2919 220.239 64.7012 220.239 65.1818C220.239 65.669 220.305 66.0833 220.438 66.4247C220.574 66.7661 220.764 67.0263 221.01 67.2053C221.255 67.3842 221.541 67.4737 221.87 67.4737C222.112 67.4737 222.329 67.424 222.521 67.3246C222.716 67.2251 222.877 67.081 223.003 66.892C223.132 66.6998 223.217 66.4695 223.257 66.201H225.255C225.222 66.7843 225.063 67.2981 224.778 67.7422C224.496 68.183 224.107 68.5277 223.61 68.7763C223.113 69.0249 222.524 69.1491 221.845 69.1491ZM231.771 69.1491C230.986 69.1491 230.31 68.9901 229.743 68.6719C229.18 68.3504 228.745 67.8963 228.44 67.3097C228.135 66.7197 227.983 66.022 227.983 65.2166C227.983 64.4311 228.135 63.7417 228.44 63.1484C228.745 62.5552 229.175 62.0928 229.728 61.7614C230.285 61.4299 230.938 61.2642 231.687 61.2642C232.191 61.2642 232.66 61.3454 233.094 61.5078C233.531 61.6669 233.912 61.9072 234.237 62.2287C234.565 62.5502 234.821 62.9545 235.003 63.4418C235.185 63.9257 235.276 64.4924 235.276 65.142V65.7237H228.828V64.4112H233.283C233.283 64.1063 233.216 63.8362 233.084 63.6009C232.951 63.3655 232.767 63.1816 232.532 63.049C232.3 62.9131 232.03 62.8452 231.722 62.8452C231.4 62.8452 231.115 62.9197 230.867 63.0689C230.621 63.2147 230.429 63.4119 230.29 63.6605C230.151 63.9058 230.079 64.1792 230.076 64.4808V65.7287C230.076 66.1065 230.146 66.433 230.285 66.7081C230.427 66.9832 230.628 67.1953 230.886 67.3445C231.145 67.4936 231.452 67.5682 231.806 67.5682C232.041 67.5682 232.257 67.535 232.452 67.4688C232.648 67.4025 232.815 67.303 232.955 67.1705C233.094 67.0379 233.2 66.8755 233.273 66.6832L235.232 66.8125C235.132 67.2831 234.928 67.6941 234.62 68.0455C234.315 68.3935 233.921 68.6652 233.437 68.8608C232.956 69.053 232.401 69.1491 231.771 69.1491ZM248.822 61.7464C248.782 61.3454 248.611 61.0339 248.31 60.8118C248.008 60.5897 247.599 60.4787 247.082 60.4787C246.731 60.4787 246.434 60.5284 246.192 60.6278C245.95 60.724 245.764 60.8582 245.635 61.0305C245.509 61.2029 245.446 61.3984 245.446 61.6172C245.44 61.7995 245.478 61.9586 245.561 62.0945C245.647 62.2304 245.764 62.348 245.914 62.4474C246.063 62.5436 246.235 62.6281 246.431 62.701C246.626 62.7706 246.835 62.8303 247.057 62.88L247.972 63.0987C248.416 63.1982 248.824 63.3307 249.195 63.4964C249.566 63.6622 249.887 63.866 250.159 64.108C250.431 64.3499 250.641 64.6349 250.791 64.9631C250.943 65.2912 251.021 65.6674 251.024 66.0916C251.021 66.7147 250.862 67.255 250.547 67.7124C250.235 68.1664 249.785 68.5194 249.195 68.7713C248.608 69.0199 247.9 69.1442 247.072 69.1442C246.25 69.1442 245.534 69.0182 244.924 68.7663C244.318 68.5144 243.844 68.1416 243.502 67.6477C243.164 67.1506 242.987 66.5357 242.97 65.8033H245.053C245.077 66.1446 245.174 66.4297 245.347 66.6584C245.522 66.8838 245.756 67.0545 246.048 67.1705C246.343 67.2831 246.676 67.3395 247.047 67.3395C247.412 67.3395 247.728 67.2865 247.997 67.1804C248.268 67.0743 248.479 66.9268 248.628 66.7379C248.777 66.549 248.852 66.3319 248.852 66.0866C248.852 65.858 248.784 65.6657 248.648 65.5099C248.515 65.3542 248.32 65.2216 248.061 65.1122C247.806 65.0028 247.493 64.9034 247.122 64.8139L246.013 64.5355C245.155 64.3267 244.477 64.0002 243.98 63.5561C243.482 63.112 243.235 62.5137 243.239 61.7614C243.235 61.1449 243.4 60.6063 243.731 60.1456C244.066 59.6849 244.525 59.3253 245.108 59.0668C245.691 58.8082 246.354 58.679 247.097 58.679C247.852 58.679 248.512 58.8082 249.075 59.0668C249.642 59.3253 250.083 59.6849 250.398 60.1456C250.713 60.6063 250.875 61.1399 250.885 61.7464H248.822ZM257.563 69.1491C256.791 69.1491 256.123 68.9851 255.559 68.657C254.999 68.3255 254.567 67.8648 254.262 67.2749C253.957 66.6816 253.804 65.9938 253.804 65.2116C253.804 64.4228 253.957 63.7334 254.262 63.1435C254.567 62.5502 254.999 62.0895 255.559 61.7614C256.123 61.4299 256.791 61.2642 257.563 61.2642C258.335 61.2642 259.001 61.4299 259.561 61.7614C260.125 62.0895 260.559 62.5502 260.864 63.1435C261.169 63.7334 261.321 64.4228 261.321 65.2116C261.321 65.9938 261.169 66.6816 260.864 67.2749C260.559 67.8648 260.125 68.3255 259.561 68.657C259.001 68.9851 258.335 69.1491 257.563 69.1491ZM257.573 67.5085C257.924 67.5085 258.217 67.4091 258.453 67.2102C258.688 67.008 258.865 66.733 258.985 66.3849C259.107 66.0369 259.169 65.6409 259.169 65.1967C259.169 64.7526 259.107 64.3565 258.985 64.0085C258.865 63.6605 258.688 63.3854 258.453 63.1832C258.217 62.9811 257.924 62.88 257.573 62.88C257.218 62.88 256.92 62.9811 256.678 63.1832C256.439 63.3854 256.259 63.6605 256.136 64.0085C256.017 64.3565 255.957 64.7526 255.957 65.1967C255.957 65.6409 256.017 66.0369 256.136 66.3849C256.259 66.733 256.439 67.008 256.678 67.2102C256.92 67.4091 257.218 67.5085 257.573 67.5085ZM266.496 58.8182V69H264.378V58.8182H266.496ZM274.77 65.7486V61.3636H276.888V69H274.854V67.6129H274.775C274.603 68.0604 274.316 68.42 273.915 68.6918C273.517 68.9635 273.032 69.0994 272.458 69.0994C271.948 69.0994 271.499 68.9834 271.111 68.7514C270.723 68.5194 270.42 68.1896 270.201 67.7621C269.986 67.3345 269.876 66.8224 269.873 66.2259V61.3636H271.991V65.848C271.994 66.2988 272.115 66.6551 272.354 66.9169C272.592 67.1787 272.912 67.3097 273.313 67.3097C273.568 67.3097 273.807 67.2517 274.029 67.1357C274.251 67.0163 274.43 66.8407 274.566 66.6087C274.705 66.3767 274.773 66.09 274.77 65.7486ZM284.324 61.3636V62.9545H279.725V61.3636H284.324ZM280.769 59.5341H282.887V66.6534C282.887 66.849 282.917 67.0014 282.976 67.1108C283.036 67.2169 283.119 67.2914 283.225 67.3345C283.334 67.3776 283.46 67.3991 283.603 67.3991C283.702 67.3991 283.802 67.3909 283.901 67.3743C284.001 67.3544 284.077 67.3395 284.13 67.3295L284.463 68.9055C284.357 68.9387 284.208 68.9768 284.015 69.0199C283.823 69.0663 283.59 69.0945 283.314 69.1044C282.804 69.1243 282.357 69.0563 281.972 68.9006C281.591 68.7448 281.294 68.5028 281.082 68.1747C280.87 67.8466 280.766 67.4323 280.769 66.9318V59.5341ZM287.383 69V61.3636H289.501V69H287.383ZM288.447 60.3793C288.132 60.3793 287.862 60.2749 287.637 60.0661C287.415 59.8539 287.304 59.6004 287.304 59.3054C287.304 59.0137 287.415 58.7635 287.637 58.5547C287.862 58.3426 288.132 58.2365 288.447 58.2365C288.762 58.2365 289.031 58.3426 289.253 58.5547C289.478 58.7635 289.591 59.0137 289.591 59.3054C289.591 59.6004 289.478 59.8539 289.253 60.0661C289.031 60.2749 288.762 60.3793 288.447 60.3793ZM296.328 69.1491C295.556 69.1491 294.888 68.9851 294.324 68.657C293.764 68.3255 293.332 67.8648 293.027 67.2749C292.722 66.6816 292.57 65.9938 292.57 65.2116C292.57 64.4228 292.722 63.7334 293.027 63.1435C293.332 62.5502 293.764 62.0895 294.324 61.7614C294.888 61.4299 295.556 61.2642 296.328 61.2642C297.1 61.2642 297.766 61.4299 298.327 61.7614C298.89 62.0895 299.324 62.5502 299.629 63.1435C299.934 63.7334 300.087 64.4228 300.087 65.2116C300.087 65.9938 299.934 66.6816 299.629 67.2749C299.324 67.8648 298.89 68.3255 298.327 68.657C297.766 68.9851 297.1 69.1491 296.328 69.1491ZM296.338 67.5085C296.689 67.5085 296.983 67.4091 297.218 67.2102C297.453 67.008 297.631 66.733 297.75 66.3849C297.873 66.0369 297.934 65.6409 297.934 65.1967C297.934 64.7526 297.873 64.3565 297.75 64.0085C297.631 63.6605 297.453 63.3854 297.218 63.1832C296.983 62.9811 296.689 62.88 296.338 62.88C295.983 62.88 295.685 62.9811 295.443 63.1832C295.204 63.3854 295.024 63.6605 294.901 64.0085C294.782 64.3565 294.722 64.7526 294.722 65.1967C294.722 65.6409 294.782 66.0369 294.901 66.3849C295.024 66.733 295.204 67.008 295.443 67.2102C295.685 67.4091 295.983 67.5085 296.338 67.5085ZM305.262 64.5852V69H303.144V61.3636H305.162V62.7109H305.252C305.421 62.2668 305.704 61.9155 306.102 61.657C306.5 61.3951 306.982 61.2642 307.549 61.2642C308.079 61.2642 308.541 61.3802 308.936 61.6122C309.33 61.8442 309.637 62.1757 309.855 62.6065C310.074 63.0341 310.183 63.5445 310.183 64.1378V69H308.066V64.5156C308.069 64.0483 307.95 63.6837 307.708 63.4219C307.466 63.1567 307.133 63.0241 306.708 63.0241C306.423 63.0241 306.171 63.0855 305.953 63.2081C305.737 63.3307 305.568 63.5097 305.446 63.745C305.326 63.977 305.265 64.2571 305.262 64.5852Z" fill="#A78B6B"/>
<path d="M98.4886 50.3182C96.7917 50.3182 95.2803 50.0265 93.9545 49.4432C92.6364 48.8523 91.5947 48.0417 90.8295 47.0114C90.072 45.9735 89.6818 44.7765 89.6591 43.4205H94.6136C94.6439 43.9886 94.8295 44.4886 95.1705 44.9205C95.5189 45.3447 95.9811 45.6742 96.5568 45.9091C97.1326 46.1439 97.7803 46.2614 98.5 46.2614C99.25 46.2614 99.9129 46.1288 100.489 45.8636C101.064 45.5985 101.515 45.2311 101.841 44.7614C102.167 44.2917 102.33 43.75 102.33 43.1364C102.33 42.5152 102.155 41.9659 101.807 41.4886C101.466 41.0038 100.973 40.625 100.33 40.3523C99.6932 40.0795 98.9356 39.9432 98.0568 39.9432H95.8864V36.3295H98.0568C98.7992 36.3295 99.4545 36.2008 100.023 35.9432C100.598 35.6856 101.045 35.3295 101.364 34.875C101.682 34.4129 101.841 33.875 101.841 33.2614C101.841 32.678 101.701 32.1667 101.42 31.7273C101.148 31.2803 100.761 30.9318 100.261 30.6818C99.7689 30.4318 99.1932 30.3068 98.5341 30.3068C97.8674 30.3068 97.2576 30.428 96.7045 30.6705C96.1515 30.9053 95.7083 31.2424 95.375 31.6818C95.0417 32.1212 94.8636 32.6364 94.8409 33.2273H90.125C90.1477 31.8864 90.5303 30.7045 91.2727 29.6818C92.0152 28.6591 93.0152 27.8598 94.2727 27.2841C95.5379 26.7008 96.9659 26.4091 98.5568 26.4091C100.163 26.4091 101.568 26.7008 102.773 27.2841C103.977 27.8674 104.913 28.6553 105.58 29.6477C106.254 30.6326 106.587 31.7386 106.58 32.9659C106.587 34.2689 106.182 35.3561 105.364 36.2273C104.553 37.0985 103.496 37.6515 102.193 37.8864V38.0682C103.905 38.2879 105.208 38.8826 106.102 39.8523C107.004 40.8144 107.451 42.0189 107.443 43.4659C107.451 44.7917 107.068 45.9697 106.295 47C105.53 48.0303 104.473 48.8409 103.125 49.4318C101.777 50.0227 100.231 50.3182 98.4886 50.3182ZM121.512 50.3182C120.315 50.3106 119.16 50.1098 118.046 49.7159C116.94 49.322 115.948 48.6818 115.069 47.7955C114.19 46.9091 113.493 45.7348 112.978 44.2727C112.47 42.8106 112.216 41.0152 112.216 38.8864C112.224 36.9318 112.448 35.1856 112.887 33.6477C113.334 32.1023 113.97 30.7917 114.796 29.7159C115.629 28.6402 116.626 27.822 117.785 27.2614C118.944 26.6932 120.243 26.4091 121.682 26.4091C123.235 26.4091 124.607 26.7121 125.796 27.3182C126.985 27.9167 127.94 28.7311 128.66 29.7614C129.387 30.7917 129.826 31.947 129.978 33.2273H125.126C124.936 32.4167 124.538 31.7803 123.932 31.3182C123.326 30.8561 122.576 30.625 121.682 30.625C120.167 30.625 119.016 31.2841 118.228 32.6023C117.448 33.9205 117.05 35.7121 117.035 37.9773H117.194C117.542 37.2879 118.012 36.7008 118.603 36.2159C119.201 35.7235 119.879 35.3485 120.637 35.0909C121.402 34.8258 122.209 34.6932 123.057 34.6932C124.436 34.6932 125.663 35.0189 126.739 35.6705C127.815 36.3144 128.663 37.2008 129.285 38.3295C129.906 39.4583 130.216 40.75 130.216 42.2045C130.216 43.7803 129.849 45.1818 129.114 46.4091C128.387 47.6364 127.368 48.5985 126.057 49.2955C124.754 49.9848 123.239 50.3258 121.512 50.3182ZM121.489 46.4545C122.247 46.4545 122.925 46.2727 123.523 45.9091C124.122 45.5455 124.591 45.053 124.932 44.4318C125.273 43.8106 125.444 43.1136 125.444 42.3409C125.444 41.5682 125.273 40.875 124.932 40.2614C124.599 39.6477 124.137 39.1591 123.546 38.7955C122.955 38.4318 122.281 38.25 121.523 38.25C120.955 38.25 120.429 38.3561 119.944 38.5682C119.466 38.7803 119.046 39.0758 118.682 39.4545C118.326 39.8333 118.046 40.2727 117.841 40.7727C117.637 41.2652 117.535 41.7917 117.535 42.3523C117.535 43.1023 117.705 43.7879 118.046 44.4091C118.395 45.0303 118.864 45.5265 119.455 45.8977C120.054 46.2689 120.732 46.4545 121.489 46.4545ZM144.43 50.5114C142.476 50.5038 140.794 50.0227 139.385 49.0682C137.983 48.1136 136.904 46.7311 136.146 44.9205C135.396 43.1098 135.025 40.9318 135.032 38.3864C135.032 35.8485 135.407 33.6856 136.157 31.8977C136.915 30.1098 137.995 28.75 139.396 27.8182C140.805 26.8788 142.483 26.4091 144.43 26.4091C146.377 26.4091 148.051 26.8788 149.453 27.8182C150.862 28.7576 151.945 30.1212 152.703 31.9091C153.46 33.6894 153.835 35.8485 153.828 38.3864C153.828 40.9394 153.449 43.1212 152.691 44.9318C151.941 46.7424 150.866 48.125 149.464 49.0795C148.063 50.0341 146.385 50.5114 144.43 50.5114ZM144.43 46.4318C145.763 46.4318 146.828 45.7614 147.623 44.4205C148.419 43.0795 148.813 41.0682 148.805 38.3864C148.805 36.6212 148.623 35.1515 148.26 33.9773C147.904 32.803 147.396 31.9205 146.737 31.3295C146.085 30.7386 145.316 30.4432 144.43 30.4432C143.104 30.4432 142.044 31.1061 141.248 32.4318C140.453 33.7576 140.051 35.7424 140.044 38.3864C140.044 40.1742 140.222 41.6667 140.578 42.8636C140.941 44.053 141.453 44.947 142.112 45.5455C142.771 46.1364 143.544 46.4318 144.43 46.4318ZM180.704 33.4205C180.613 32.5038 180.223 31.7917 179.534 31.2841C178.844 30.7765 177.909 30.5227 176.727 30.5227C175.924 30.5227 175.246 30.6364 174.693 30.8636C174.14 31.0833 173.715 31.3902 173.42 31.7841C173.132 32.178 172.988 32.625 172.988 33.125C172.973 33.5417 173.06 33.9053 173.249 34.2159C173.446 34.5265 173.715 34.7955 174.056 35.0227C174.397 35.2424 174.791 35.4356 175.238 35.6023C175.685 35.7614 176.162 35.8977 176.67 36.0114L178.761 36.5114C179.776 36.7386 180.708 37.0417 181.556 37.4205C182.405 37.7992 183.14 38.2652 183.761 38.8182C184.382 39.3712 184.863 40.0227 185.204 40.7727C185.552 41.5227 185.73 42.3826 185.738 43.3523C185.73 44.7765 185.367 46.0114 184.647 47.0568C183.935 48.0947 182.905 48.9015 181.556 49.4773C180.215 50.0455 178.598 50.3295 176.704 50.3295C174.825 50.3295 173.189 50.0417 171.795 49.4659C170.409 48.8902 169.325 48.0379 168.545 46.9091C167.772 45.7727 167.367 44.3674 167.329 42.6932H172.09C172.143 43.4735 172.367 44.125 172.761 44.6477C173.162 45.1629 173.696 45.553 174.363 45.8182C175.037 46.0758 175.799 46.2045 176.647 46.2045C177.48 46.2045 178.204 46.0833 178.818 45.8409C179.439 45.5985 179.92 45.2614 180.261 44.8295C180.602 44.3977 180.772 43.9015 180.772 43.3409C180.772 42.8182 180.617 42.3788 180.306 42.0227C180.003 41.6667 179.556 41.3636 178.965 41.1136C178.382 40.8636 177.666 40.6364 176.818 40.4318L174.284 39.7955C172.321 39.3182 170.772 38.572 169.636 37.5568C168.499 36.5417 167.935 35.1742 167.943 33.4545C167.935 32.0455 168.31 30.8144 169.068 29.7614C169.833 28.7083 170.882 27.8864 172.215 27.2955C173.549 26.7045 175.064 26.4091 176.761 26.4091C178.488 26.4091 179.996 26.7045 181.284 27.2955C182.579 27.8864 183.587 28.7083 184.306 29.7614C185.026 30.8144 185.397 32.0341 185.42 33.4205H180.704ZM205.023 26.7273H209.943V41.8409C209.943 43.5379 209.538 45.0227 208.727 46.2955C207.924 47.5682 206.799 48.5606 205.352 49.2727C203.905 49.9773 202.22 50.3295 200.295 50.3295C198.364 50.3295 196.674 49.9773 195.227 49.2727C193.78 48.5606 192.655 47.5682 191.852 46.2955C191.049 45.0227 190.648 43.5379 190.648 41.8409V26.7273H195.568V41.4205C195.568 42.3068 195.761 43.0947 196.148 43.7841C196.542 44.4735 197.095 45.0152 197.807 45.4091C198.519 45.803 199.348 46 200.295 46C201.25 46 202.08 45.803 202.784 45.4091C203.496 45.0152 204.045 44.4735 204.432 43.7841C204.826 43.0947 205.023 42.3068 205.023 41.4205V26.7273ZM215.591 50V26.7273H224.91C226.622 26.7273 228.05 26.9811 229.194 27.4886C230.338 27.9962 231.198 28.7008 231.773 29.6023C232.349 30.4962 232.637 31.5265 232.637 32.6932C232.637 33.6023 232.455 34.4015 232.091 35.0909C231.728 35.7727 231.228 36.3333 230.591 36.7727C229.963 37.2045 229.243 37.5114 228.432 37.6932V37.9205C229.319 37.9583 230.148 38.2083 230.921 38.6705C231.701 39.1326 232.334 39.7803 232.819 40.6136C233.304 41.4394 233.546 42.4242 233.546 43.5682C233.546 44.803 233.239 45.9053 232.626 46.875C232.02 47.8371 231.122 48.5985 229.932 49.1591C228.743 49.7197 227.277 50 225.535 50H215.591ZM220.512 45.9773H224.523C225.895 45.9773 226.895 45.7159 227.523 45.1932C228.152 44.6629 228.466 43.9583 228.466 43.0795C228.466 42.4356 228.311 41.8674 228.001 41.375C227.69 40.8826 227.247 40.4962 226.671 40.2159C226.103 39.9356 225.425 39.7955 224.637 39.7955H220.512V45.9773ZM220.512 36.4659H224.16C224.834 36.4659 225.432 36.3485 225.955 36.1136C226.485 35.8712 226.902 35.5303 227.205 35.0909C227.516 34.6515 227.671 34.125 227.671 33.5114C227.671 32.6705 227.372 31.9924 226.773 31.4773C226.182 30.9621 225.341 30.7045 224.251 30.7045H220.512V36.4659ZM250.973 33.4205C250.882 32.5038 250.492 31.7917 249.802 31.2841C249.113 30.7765 248.177 30.5227 246.995 30.5227C246.192 30.5227 245.514 30.6364 244.961 30.8636C244.408 31.0833 243.984 31.3902 243.689 31.7841C243.401 32.178 243.257 32.625 243.257 33.125C243.242 33.5417 243.329 33.9053 243.518 34.2159C243.715 34.5265 243.984 34.7955 244.325 35.0227C244.666 35.2424 245.06 35.4356 245.507 35.6023C245.954 35.7614 246.431 35.8977 246.939 36.0114L249.03 36.5114C250.045 36.7386 250.977 37.0417 251.825 37.4205C252.673 37.7992 253.408 38.2652 254.03 38.8182C254.651 39.3712 255.132 40.0227 255.473 40.7727C255.821 41.5227 255.999 42.3826 256.007 43.3523C255.999 44.7765 255.636 46.0114 254.916 47.0568C254.204 48.0947 253.173 48.9015 251.825 49.4773C250.484 50.0455 248.867 50.3295 246.973 50.3295C245.094 50.3295 243.458 50.0417 242.064 49.4659C240.677 48.8902 239.594 48.0379 238.814 46.9091C238.041 45.7727 237.636 44.3674 237.598 42.6932H242.359C242.412 43.4735 242.636 44.125 243.03 44.6477C243.431 45.1629 243.965 45.553 244.632 45.8182C245.306 46.0758 246.067 46.2045 246.916 46.2045C247.749 46.2045 248.473 46.0833 249.086 45.8409C249.708 45.5985 250.189 45.2614 250.53 44.8295C250.87 44.3977 251.041 43.9015 251.041 43.3409C251.041 42.8182 250.886 42.3788 250.575 42.0227C250.272 41.6667 249.825 41.3636 249.234 41.1136C248.651 40.8636 247.935 40.6364 247.086 40.4318L244.552 39.7955C242.59 39.3182 241.041 38.572 239.905 37.5568C238.768 36.5417 238.204 35.1742 238.211 33.4545C238.204 32.0455 238.579 30.8144 239.336 29.7614C240.102 28.7083 241.151 27.8864 242.484 27.2955C243.817 26.7045 245.333 26.4091 247.03 26.4091C248.757 26.4091 250.264 26.7045 251.552 27.2955C252.848 27.8864 253.855 28.7083 254.575 29.7614C255.295 30.8144 255.666 32.0341 255.689 33.4205H250.973ZM265.837 26.7273V50H260.916V26.7273H265.837ZM279.735 50H271.485V26.7273H279.803C282.144 26.7273 284.159 27.1932 285.849 28.125C287.538 29.0492 288.837 30.3788 289.747 32.1136C290.663 33.8485 291.122 35.9242 291.122 38.3409C291.122 40.7652 290.663 42.8485 289.747 44.5909C288.837 46.3333 287.531 47.6705 285.826 48.6023C284.129 49.5341 282.099 50 279.735 50ZM276.406 45.7841H279.531C280.985 45.7841 282.209 45.5265 283.201 45.0114C284.201 44.4886 284.951 43.6818 285.451 42.5909C285.959 41.4924 286.212 40.0758 286.212 38.3409C286.212 36.6212 285.959 35.2159 285.451 34.125C284.951 33.0341 284.205 32.2311 283.212 31.7159C282.22 31.2008 280.997 30.9432 279.542 30.9432H276.406V45.7841ZM293.597 26.7273H299.108L304.415 36.75H304.642L309.949 26.7273H315.46L306.972 41.7727V50H302.085V41.7727L293.597 26.7273Z" fill="#8C693F"/>
<path fill-rule="evenodd" clip-rule="evenodd" d="M38.014 26.1586L49.9285 28.1464L31.2479 40.2849L30.9761 58.3201L48.5577 68.3344L48.7518 72.9666L26.9542 60.4303L27.1788 38.091L39.7424 29.6709L38.014 26.1586Z" fill="#8C693F"/>
<path d="M38.014 26.1586L49.9285 28.1464L31.2479 40.2849L30.9761 58.3201L48.5577 68.3344L48.7518 72.9666L26.9542 60.4303L27.1788 38.091L39.7424 29.6709L38.014 26.1586Z" stroke="#8C693F" stroke-width="0.5" stroke-miterlimit="22.9256"/>
<path fill-rule="evenodd" clip-rule="evenodd" d="M39.6322 49.6755L33.6749 47.2901L33.8518 57.1099L39.6151 60.3177L39.6322 49.6755Z" fill="#8C693F"/>
<path d="M39.6322 49.6755L33.6749 47.2901L33.8518 57.1099L39.6151 60.3177L39.6322 49.6755Z" stroke="#8C693F" stroke-width="0.5" stroke-miterlimit="22.9256"/>
<path fill-rule="evenodd" clip-rule="evenodd" d="M49.0916 43.1879L43.0303 39.9246L43.1774 62.2249L48.8773 65.4308L49.0916 43.1879Z" fill="#A78B6B"/>
<path d="M49.0916 43.1879L43.0303 39.9246L43.1774 62.2249L48.8773 65.4308L49.0916 43.1879Z" stroke="#A78B6B" stroke-width="0.5" stroke-miterlimit="22.9256"/>
<path fill-rule="evenodd" clip-rule="evenodd" d="M25.732 36.5628L25.7042 61.4309L48.6965 74.8776L48.6414 76.7883L24.1509 62.2925L24 35.9533L37.0394 27.5585L37.7243 28.9992L25.732 36.5628Z" fill="#A78B6B"/>
<path d="M25.732 36.5628L25.7042 61.4309L48.6965 74.8776L48.6414 76.7883L24.1509 62.2925L24 35.9533L37.0394 27.5585L37.7243 28.9992L25.732 36.5628Z" stroke="#A78B6B" stroke-width="0.5" stroke-miterlimit="22.9256"/>
<path fill-rule="evenodd" clip-rule="evenodd" d="M63.6593 65.6297L51.7448 63.6416L70.4255 51.5034L70.6973 33.4682L53.1153 23.4539L52.9217 18.8218L74.7192 31.3581L74.4945 53.6973L61.9309 62.1176L63.6593 65.6297Z" fill="#8C693F"/>
<path d="M63.6593 65.6297L51.7448 63.6416L70.4255 51.5034L70.6973 33.4682L53.1153 23.4539L52.9217 18.8218L74.7192 31.3581L74.4945 53.6973L61.9309 62.1176L63.6593 65.6297Z" stroke="#8C693F" stroke-width="0.5" stroke-miterlimit="22.9256"/>
<path fill-rule="evenodd" clip-rule="evenodd" d="M75.9411 55.2255L75.9691 30.3574L52.9768 16.9108L53.0319 15L77.5224 29.4958L77.6733 55.835L65.0041 64.2254L64.2338 62.7294L75.9411 55.2255Z" fill="#A78B6B"/>
<path d="M75.9411 55.2255L75.9691 30.3574L52.9768 16.9108L53.0319 15L77.5224 29.4958L77.6733 55.835L65.0041 64.2254L64.2338 62.7294L75.9411 55.2255Z" stroke="#A78B6B" stroke-width="0.5" stroke-miterlimit="22.9256"/>
<path fill-rule="evenodd" clip-rule="evenodd" d="M58.3261 36.7606L52.6265 32.8502L52.4305 58.9015L58.5062 55.3505L58.3261 36.7606Z" fill="#8C693F"/>
<path d="M58.3261 36.7606L52.6265 32.8502L52.4305 58.9015L58.5062 55.3505L58.3261 36.7606Z" stroke="#8C693F" stroke-width="0.5" stroke-miterlimit="22.9256"/>
<path fill-rule="evenodd" clip-rule="evenodd" d="M67.7511 34.4957L62.0515 30.5854L61.8419 54.2382L67.9097 50.847L67.7511 34.4957Z" fill="#A78B6B"/>
<path d="M67.7511 34.4957L62.0515 30.5854L61.8419 54.2382L67.9097 50.847L67.7511 34.4957Z" stroke="#A78B6B" stroke-width="0.5" stroke-miterlimit="22.9256"/>
</svg>
